<?xml version="1.0" standalone="no"?><!DOCTYPE svg PUBLIC "-//W3C//DTD SVG 1.1//EN" "http://www.w3.org/Graphics/SVG/1.1/DTD/svg11.dtd"><svg t="1733843796295" class="icon" viewBox="0 0 1024 1024" version="1.1" xmlns="http://www.w3.org/2000/svg" p-id="5808" xmlns:xlink="http://www.w3.org/1999/xlink" width="64" height="64"><path d="M243.023908 512.065447l170.348525 66.101667 324.739062-358.044864-495.087587 291.943197zM852.657055 205.084146l-324.189131 415.747589 209.65357 84.209384L852.657055 205.084146zM413.382432 705.041119v185.586605l94.978027-148.361297-94.978027-37.225308zM986.240215 27.44654c5.299332 9.858757 7.039113 21.117338 4.949376 32.015964L832.38961 798.809299c-5.23934 27.306558-32.645885 45.384279-61.222282 40.384908-4.169474-0.729908-8.238961-1.939755-12.108473-3.599546l-162.189554-57.622736-133.953113 218.152499c-8.298954 13.018359-21.627274 22.387178-37.095324 26.106709-32.255934 7.749023-64.971809-10.678654-73.580724-41.254799l-0.249968-0.929883-42.474646-307.061291-246.308949-94.828045c-26.49666-11.388564-38.31517-41.144813-26.396672-66.461622 4.889384-10.38869 13.338319-18.887619 23.946981-24.086963L915.409144 5.689283c25.846742-12.678402 57.552745-2.939629 70.831071 21.757257z" fill="#606060" p-id="5809"></path></svg>