<?xml version="1.0" standalone="no"?>
<svg xmlns="http://www.w3.org/2000/svg" width="48" height="48"><rect width="48" height="48" opacity="0"></rect><g mask="url(#hms_mask_0)"><path d="M12.34 5.18Q10.32 5.18 8.59 6.22Q6.86 7.25 5.86 8.98Q4.85 10.7 4.85 12.72L4.85 35.66Q4.85 37.73 5.86 39.46Q6.86 41.18 8.59 42.19Q10.32 43.2 12.34 43.2L35.33 43.2Q37.34 43.2 39.1 42.19Q40.85 41.18 41.86 39.46Q42.86 37.73 42.86 35.66L42.86 12.72Q42.86 10.66 41.86 8.93Q40.85 7.2 39.1 6.19Q37.34 5.18 35.33 5.18L12.34 5.18Z" fill="rgba(0,0,0,0.9019607843137255)"></path></g><defs><mask id="hms_mask_0"><rect width="48" height="48" fill="#ffffff"></rect><g><path d="M46.61 1.3Q45.98 0.67 45.17 0.34Q44.35 0 43.39 0Q42.48 0 41.66 0.34Q40.85 0.67 40.22 1.3L21.07 20.45Q20.64 20.88 20.4 21.31L17.66 26.16Q17.28 26.93 17.28 27.72Q17.28 28.51 17.71 29.14Q18.1 29.81 18.79 30.22Q19.49 30.62 20.26 30.62Q20.98 30.62 21.65 30.24L26.54 27.46Q26.98 27.26 27.46 26.78L46.61 7.68Q47.95 6.34 47.95 4.49Q47.95 2.64 46.61 1.3Z" fill="#000000"></path></g></mask></defs><g><path d="M19.73 27.36Q19.58 27.6 19.68 27.86Q19.78 28.13 20.04 28.22Q20.3 28.32 20.54 28.22L24.1 26.16Q24.48 25.92 24.82 25.73L25.15 25.49L22.46 22.75L22.13 23.18Q21.98 23.38 21.94 23.5Q21.89 23.62 21.74 23.81L19.73 27.36ZM44.98 2.98Q44.35 2.35 43.46 2.35Q42.58 2.35 41.9 2.98L23.9 20.98L23.71 21.17Q23.57 21.36 23.38 21.6L26.35 24.53L26.98 24L44.98 6Q45.6 5.38 45.6 4.49Q45.6 3.6 44.98 2.98Z" fill="rgba(0,0,0,0.9019607843137255)"></path></g></svg>