<?xml version="1.0" standalone="no"?><!DOCTYPE svg PUBLIC "-//W3C//DTD SVG 1.1//EN" "http://www.w3.org/Graphics/SVG/1.1/DTD/svg11.dtd"><svg t="1733844715774" class="icon" viewBox="0 0 1024 1024" version="1.1" xmlns="http://www.w3.org/2000/svg" p-id="13916" xmlns:xlink="http://www.w3.org/1999/xlink" width="64" height="64"><path d="M720.145998 769.286361c125.756975-68.361775 211.121183-201.629789 211.121183-354.829963C931.267181 191.558128 750.569658 10.860606 527.673872 10.860606 304.773275 10.860606 124.075753 191.558128 124.075753 414.456398c0 153.200795 85.364829 286.469275 211.124286 354.830894-77.825396 24.577707-134.249038 97.345474-134.249038 183.296931v28.731889h0.001241c-0.000155 0.032272-0.001241 0.064233-0.001241 0.096349 0 15.915598 12.908141 28.828393 28.83072 28.828392h595.784301c15.91808 0 28.828238-12.912795 28.828237-28.828392 0-0.032272-0.001086-0.064233-0.001241-0.096349h0.001241v-28.731889c0-85.952698-56.423486-158.721086-134.248261-183.297862zM181.732228 414.456398c0-191.057765 154.886361-345.939161 345.941644-345.939162 191.059937 0 345.936834 154.881552 345.936833 345.939162 0 191.05311-154.876742 345.939316-345.936833 345.939316-191.055282-0.000155-345.941644-154.886206-345.941644-345.939316z m230.628693 403.595946h230.623884c78.403646 0 143.100587 58.692732 152.559088 134.531724H259.801522c9.458192-75.838992 74.15327-134.531724 152.559399-134.531724z" p-id="13917"></path><path d="M673.061081 501.973488c5.151806-5.208126 8.356461-12.34975 8.356461-20.260615 0-2.899627-0.853799-5.517964-1.651588-8.154919 0.072766-0.50657 0.262982-0.956975 0.321474-1.454546h-0.605091c-3.988635-11.138948-14.383632-19.218773-26.892878-19.218773-12.511418 0-22.899743 8.079825-26.888067 19.218773h-3.88034c-8.90337 43.85249-47.669217 76.875404-94.158817 76.875404-46.479825 0-85.245983-33.022914-94.156334-76.875404h-3.875685c-3.983515-11.138948-14.37184-19.218773-26.885896-19.218773-12.5184 0-22.897416 8.079825-26.890395 19.218773h-0.612228c0.060975 0.497416 0.25569 0.947976 0.316664 1.454546-0.788325 2.6368-1.642279 5.255137-1.642279 8.154919 0 7.910865 3.2 15.05249 8.365925 20.260615 20.495205 60.790846 77.687312 104.661954 145.380073 104.661954 67.697571 0 124.894487-43.871108 145.399001-104.661954z" p-id="13918"></path></svg>